<mxfile host="app.diagrams.net" modified="2023-06-28T00:39:03.096Z" agent="Mozilla/5.0 (Windows NT 10.0; Win64; x64) AppleWebKit/537.36 (KHTML, like Gecko) Chrome/114.0.0.0 Safari/537.36" etag="vccCgX_A1f8hrm9XC1fW" version="21.2.3" type="github">
  <diagram id="R2lEEEUBdFMjLlhIrx00" name="Page-1">
    <mxGraphModel dx="2535" dy="685" grid="1" gridSize="10" guides="1" tooltips="1" connect="1" arrows="1" fold="1" page="1" pageScale="1" pageWidth="850" pageHeight="1100" math="0" shadow="0" extFonts="Permanent Marker^https://fonts.googleapis.com/css?family=Permanent+Marker">
      <root>
        <mxCell id="0" />
        <mxCell id="1" parent="0" />
        <mxCell id="C-vyLk0tnHw3VtMMgP7b-1" value="" style="edgeStyle=entityRelationEdgeStyle;endArrow=ERzeroToMany;startArrow=ERone;endFill=1;startFill=0;" parent="1" edge="1">
          <mxGeometry width="100" height="100" relative="1" as="geometry">
            <mxPoint x="-30" y="137.5" as="sourcePoint" />
            <mxPoint x="31" y="162.5" as="targetPoint" />
          </mxGeometry>
        </mxCell>
        <mxCell id="C-vyLk0tnHw3VtMMgP7b-12" value="" style="edgeStyle=entityRelationEdgeStyle;endArrow=ERzeroToMany;startArrow=ERone;endFill=1;startFill=0;exitX=0.08;exitY=0.973;exitDx=0;exitDy=0;exitPerimeter=0;entryX=0.994;entryY=0.239;entryDx=0;entryDy=0;entryPerimeter=0;" parent="1" source="HeoG5Yq3dVSNQENteENj-108" target="HeoG5Yq3dVSNQENteENj-134" edge="1">
          <mxGeometry width="100" height="100" relative="1" as="geometry">
            <mxPoint x="700" y="165" as="sourcePoint" />
            <mxPoint x="400" y="380" as="targetPoint" />
          </mxGeometry>
        </mxCell>
        <mxCell id="HeoG5Yq3dVSNQENteENj-14" value="" style="shape=table;startSize=0;container=1;collapsible=0;childLayout=tableLayout;fontSize=16;sketch=1;hachureGap=4;jiggle=2;curveFitting=1;fontFamily=Architects Daughter;fontSource=https%3A%2F%2Ffonts.googleapis.com%2Fcss%3Ffamily%3DArchitects%2BDaughter;" vertex="1" parent="1">
          <mxGeometry x="-500" y="70" width="370" height="249" as="geometry" />
        </mxCell>
        <mxCell id="HeoG5Yq3dVSNQENteENj-15" value="" style="shape=tableRow;horizontal=0;startSize=0;swimlaneHead=0;swimlaneBody=0;strokeColor=inherit;top=0;left=0;bottom=0;right=0;collapsible=0;dropTarget=0;fillColor=none;points=[[0,0.5],[1,0.5]];portConstraint=eastwest;fontSize=16;sketch=1;hachureGap=4;jiggle=2;curveFitting=1;fontFamily=Architects Daughter;fontSource=https%3A%2F%2Ffonts.googleapis.com%2Fcss%3Ffamily%3DArchitects%2BDaughter;" vertex="1" parent="HeoG5Yq3dVSNQENteENj-14">
          <mxGeometry width="370" height="40" as="geometry" />
        </mxCell>
        <mxCell id="HeoG5Yq3dVSNQENteENj-16" value="pk(id)" style="shape=partialRectangle;html=1;whiteSpace=wrap;connectable=0;strokeColor=inherit;overflow=hidden;fillColor=none;top=0;left=0;bottom=0;right=0;pointerEvents=1;fontSize=16;sketch=1;hachureGap=4;jiggle=2;curveFitting=1;fontFamily=Architects Daughter;fontSource=https%3A%2F%2Ffonts.googleapis.com%2Fcss%3Ffamily%3DArchitects%2BDaughter;" vertex="1" parent="HeoG5Yq3dVSNQENteENj-15">
          <mxGeometry width="123" height="40" as="geometry">
            <mxRectangle width="123" height="40" as="alternateBounds" />
          </mxGeometry>
        </mxCell>
        <mxCell id="HeoG5Yq3dVSNQENteENj-17" value="nombre" style="shape=partialRectangle;html=1;whiteSpace=wrap;connectable=0;strokeColor=inherit;overflow=hidden;fillColor=none;top=0;left=0;bottom=0;right=0;pointerEvents=1;fontSize=16;sketch=1;hachureGap=4;jiggle=2;curveFitting=1;fontFamily=Architects Daughter;fontSource=https%3A%2F%2Ffonts.googleapis.com%2Fcss%3Ffamily%3DArchitects%2BDaughter;" vertex="1" parent="HeoG5Yq3dVSNQENteENj-15">
          <mxGeometry x="123" width="124" height="40" as="geometry">
            <mxRectangle width="124" height="40" as="alternateBounds" />
          </mxGeometry>
        </mxCell>
        <mxCell id="HeoG5Yq3dVSNQENteENj-18" value="apellido" style="shape=partialRectangle;html=1;whiteSpace=wrap;connectable=0;strokeColor=inherit;overflow=hidden;fillColor=none;top=0;left=0;bottom=0;right=0;pointerEvents=1;fontSize=16;sketch=1;hachureGap=4;jiggle=2;curveFitting=1;fontFamily=Architects Daughter;fontSource=https%3A%2F%2Ffonts.googleapis.com%2Fcss%3Ffamily%3DArchitects%2BDaughter;" vertex="1" parent="HeoG5Yq3dVSNQENteENj-15">
          <mxGeometry x="247" width="123" height="40" as="geometry">
            <mxRectangle width="123" height="40" as="alternateBounds" />
          </mxGeometry>
        </mxCell>
        <mxCell id="HeoG5Yq3dVSNQENteENj-19" value="" style="shape=tableRow;horizontal=0;startSize=0;swimlaneHead=0;swimlaneBody=0;strokeColor=inherit;top=0;left=0;bottom=0;right=0;collapsible=0;dropTarget=0;fillColor=none;points=[[0,0.5],[1,0.5]];portConstraint=eastwest;fontSize=16;sketch=1;hachureGap=4;jiggle=2;curveFitting=1;fontFamily=Architects Daughter;fontSource=https%3A%2F%2Ffonts.googleapis.com%2Fcss%3Ffamily%3DArchitects%2BDaughter;" vertex="1" parent="HeoG5Yq3dVSNQENteENj-14">
          <mxGeometry y="40" width="370" height="37" as="geometry" />
        </mxCell>
        <mxCell id="HeoG5Yq3dVSNQENteENj-20" value="1" style="shape=partialRectangle;html=1;whiteSpace=wrap;connectable=0;strokeColor=inherit;overflow=hidden;fillColor=none;top=0;left=0;bottom=0;right=0;pointerEvents=1;fontSize=16;sketch=1;hachureGap=4;jiggle=2;curveFitting=1;fontFamily=Architects Daughter;fontSource=https%3A%2F%2Ffonts.googleapis.com%2Fcss%3Ffamily%3DArchitects%2BDaughter;" vertex="1" parent="HeoG5Yq3dVSNQENteENj-19">
          <mxGeometry width="123" height="37" as="geometry">
            <mxRectangle width="123" height="37" as="alternateBounds" />
          </mxGeometry>
        </mxCell>
        <mxCell id="HeoG5Yq3dVSNQENteENj-21" value="cristian" style="shape=partialRectangle;html=1;whiteSpace=wrap;connectable=0;strokeColor=inherit;overflow=hidden;fillColor=none;top=0;left=0;bottom=0;right=0;pointerEvents=1;fontSize=16;sketch=1;hachureGap=4;jiggle=2;curveFitting=1;fontFamily=Architects Daughter;fontSource=https%3A%2F%2Ffonts.googleapis.com%2Fcss%3Ffamily%3DArchitects%2BDaughter;" vertex="1" parent="HeoG5Yq3dVSNQENteENj-19">
          <mxGeometry x="123" width="124" height="37" as="geometry">
            <mxRectangle width="124" height="37" as="alternateBounds" />
          </mxGeometry>
        </mxCell>
        <mxCell id="HeoG5Yq3dVSNQENteENj-22" value="rebolledo" style="shape=partialRectangle;html=1;whiteSpace=wrap;connectable=0;strokeColor=inherit;overflow=hidden;fillColor=none;top=0;left=0;bottom=0;right=0;pointerEvents=1;fontSize=16;sketch=1;hachureGap=4;jiggle=2;curveFitting=1;fontFamily=Architects Daughter;fontSource=https%3A%2F%2Ffonts.googleapis.com%2Fcss%3Ffamily%3DArchitects%2BDaughter;" vertex="1" parent="HeoG5Yq3dVSNQENteENj-19">
          <mxGeometry x="247" width="123" height="37" as="geometry">
            <mxRectangle width="123" height="37" as="alternateBounds" />
          </mxGeometry>
        </mxCell>
        <mxCell id="HeoG5Yq3dVSNQENteENj-23" value="" style="shape=tableRow;horizontal=0;startSize=0;swimlaneHead=0;swimlaneBody=0;strokeColor=inherit;top=0;left=0;bottom=0;right=0;collapsible=0;dropTarget=0;fillColor=none;points=[[0,0.5],[1,0.5]];portConstraint=eastwest;fontSize=16;sketch=1;hachureGap=4;jiggle=2;curveFitting=1;fontFamily=Architects Daughter;fontSource=https%3A%2F%2Ffonts.googleapis.com%2Fcss%3Ffamily%3DArchitects%2BDaughter;" vertex="1" parent="HeoG5Yq3dVSNQENteENj-14">
          <mxGeometry y="77" width="370" height="43" as="geometry" />
        </mxCell>
        <mxCell id="HeoG5Yq3dVSNQENteENj-24" value="2" style="shape=partialRectangle;html=1;whiteSpace=wrap;connectable=0;strokeColor=inherit;overflow=hidden;fillColor=none;top=0;left=0;bottom=0;right=0;pointerEvents=1;fontSize=16;sketch=1;hachureGap=4;jiggle=2;curveFitting=1;fontFamily=Architects Daughter;fontSource=https%3A%2F%2Ffonts.googleapis.com%2Fcss%3Ffamily%3DArchitects%2BDaughter;" vertex="1" parent="HeoG5Yq3dVSNQENteENj-23">
          <mxGeometry width="123" height="43" as="geometry">
            <mxRectangle width="123" height="43" as="alternateBounds" />
          </mxGeometry>
        </mxCell>
        <mxCell id="HeoG5Yq3dVSNQENteENj-25" value="jose" style="shape=partialRectangle;html=1;whiteSpace=wrap;connectable=0;strokeColor=inherit;overflow=hidden;fillColor=none;top=0;left=0;bottom=0;right=0;pointerEvents=1;fontSize=16;sketch=1;hachureGap=4;jiggle=2;curveFitting=1;fontFamily=Architects Daughter;fontSource=https%3A%2F%2Ffonts.googleapis.com%2Fcss%3Ffamily%3DArchitects%2BDaughter;" vertex="1" parent="HeoG5Yq3dVSNQENteENj-23">
          <mxGeometry x="123" width="124" height="43" as="geometry">
            <mxRectangle width="124" height="43" as="alternateBounds" />
          </mxGeometry>
        </mxCell>
        <mxCell id="HeoG5Yq3dVSNQENteENj-26" value="hhh" style="shape=partialRectangle;html=1;whiteSpace=wrap;connectable=0;strokeColor=inherit;overflow=hidden;fillColor=none;top=0;left=0;bottom=0;right=0;pointerEvents=1;fontSize=16;sketch=1;hachureGap=4;jiggle=2;curveFitting=1;fontFamily=Architects Daughter;fontSource=https%3A%2F%2Ffonts.googleapis.com%2Fcss%3Ffamily%3DArchitects%2BDaughter;" vertex="1" parent="HeoG5Yq3dVSNQENteENj-23">
          <mxGeometry x="247" width="123" height="43" as="geometry">
            <mxRectangle width="123" height="43" as="alternateBounds" />
          </mxGeometry>
        </mxCell>
        <mxCell id="HeoG5Yq3dVSNQENteENj-47" value="" style="shape=tableRow;horizontal=0;startSize=0;swimlaneHead=0;swimlaneBody=0;strokeColor=inherit;top=0;left=0;bottom=0;right=0;collapsible=0;dropTarget=0;fillColor=none;points=[[0,0.5],[1,0.5]];portConstraint=eastwest;fontSize=16;sketch=1;hachureGap=4;jiggle=2;curveFitting=1;fontFamily=Architects Daughter;fontSource=https%3A%2F%2Ffonts.googleapis.com%2Fcss%3Ffamily%3DArchitects%2BDaughter;" vertex="1" parent="HeoG5Yq3dVSNQENteENj-14">
          <mxGeometry y="120" width="370" height="43" as="geometry" />
        </mxCell>
        <mxCell id="HeoG5Yq3dVSNQENteENj-48" value="3" style="shape=partialRectangle;html=1;whiteSpace=wrap;connectable=0;strokeColor=inherit;overflow=hidden;fillColor=none;top=0;left=0;bottom=0;right=0;pointerEvents=1;fontSize=16;sketch=1;hachureGap=4;jiggle=2;curveFitting=1;fontFamily=Architects Daughter;fontSource=https%3A%2F%2Ffonts.googleapis.com%2Fcss%3Ffamily%3DArchitects%2BDaughter;" vertex="1" parent="HeoG5Yq3dVSNQENteENj-47">
          <mxGeometry width="123" height="43" as="geometry">
            <mxRectangle width="123" height="43" as="alternateBounds" />
          </mxGeometry>
        </mxCell>
        <mxCell id="HeoG5Yq3dVSNQENteENj-49" value="juan" style="shape=partialRectangle;html=1;whiteSpace=wrap;connectable=0;strokeColor=inherit;overflow=hidden;fillColor=none;top=0;left=0;bottom=0;right=0;pointerEvents=1;fontSize=16;sketch=1;hachureGap=4;jiggle=2;curveFitting=1;fontFamily=Architects Daughter;fontSource=https%3A%2F%2Ffonts.googleapis.com%2Fcss%3Ffamily%3DArchitects%2BDaughter;" vertex="1" parent="HeoG5Yq3dVSNQENteENj-47">
          <mxGeometry x="123" width="124" height="43" as="geometry">
            <mxRectangle width="124" height="43" as="alternateBounds" />
          </mxGeometry>
        </mxCell>
        <mxCell id="HeoG5Yq3dVSNQENteENj-50" value="ggg" style="shape=partialRectangle;html=1;whiteSpace=wrap;connectable=0;strokeColor=inherit;overflow=hidden;fillColor=none;top=0;left=0;bottom=0;right=0;pointerEvents=1;fontSize=16;sketch=1;hachureGap=4;jiggle=2;curveFitting=1;fontFamily=Architects Daughter;fontSource=https%3A%2F%2Ffonts.googleapis.com%2Fcss%3Ffamily%3DArchitects%2BDaughter;" vertex="1" parent="HeoG5Yq3dVSNQENteENj-47">
          <mxGeometry x="247" width="123" height="43" as="geometry">
            <mxRectangle width="123" height="43" as="alternateBounds" />
          </mxGeometry>
        </mxCell>
        <mxCell id="HeoG5Yq3dVSNQENteENj-68" value="" style="shape=tableRow;horizontal=0;startSize=0;swimlaneHead=0;swimlaneBody=0;strokeColor=inherit;top=0;left=0;bottom=0;right=0;collapsible=0;dropTarget=0;fillColor=none;points=[[0,0.5],[1,0.5]];portConstraint=eastwest;fontSize=16;sketch=1;hachureGap=4;jiggle=2;curveFitting=1;fontFamily=Architects Daughter;fontSource=https%3A%2F%2Ffonts.googleapis.com%2Fcss%3Ffamily%3DArchitects%2BDaughter;" vertex="1" parent="HeoG5Yq3dVSNQENteENj-14">
          <mxGeometry y="163" width="370" height="43" as="geometry" />
        </mxCell>
        <mxCell id="HeoG5Yq3dVSNQENteENj-69" value="4" style="shape=partialRectangle;html=1;whiteSpace=wrap;connectable=0;strokeColor=inherit;overflow=hidden;fillColor=none;top=0;left=0;bottom=0;right=0;pointerEvents=1;fontSize=16;sketch=1;hachureGap=4;jiggle=2;curveFitting=1;fontFamily=Architects Daughter;fontSource=https%3A%2F%2Ffonts.googleapis.com%2Fcss%3Ffamily%3DArchitects%2BDaughter;" vertex="1" parent="HeoG5Yq3dVSNQENteENj-68">
          <mxGeometry width="123" height="43" as="geometry">
            <mxRectangle width="123" height="43" as="alternateBounds" />
          </mxGeometry>
        </mxCell>
        <mxCell id="HeoG5Yq3dVSNQENteENj-70" value="ivan!" style="shape=partialRectangle;html=1;whiteSpace=wrap;connectable=0;strokeColor=inherit;overflow=hidden;fillColor=none;top=0;left=0;bottom=0;right=0;pointerEvents=1;fontSize=16;sketch=1;hachureGap=4;jiggle=2;curveFitting=1;fontFamily=Architects Daughter;fontSource=https%3A%2F%2Ffonts.googleapis.com%2Fcss%3Ffamily%3DArchitects%2BDaughter;" vertex="1" parent="HeoG5Yq3dVSNQENteENj-68">
          <mxGeometry x="123" width="124" height="43" as="geometry">
            <mxRectangle width="124" height="43" as="alternateBounds" />
          </mxGeometry>
        </mxCell>
        <mxCell id="HeoG5Yq3dVSNQENteENj-71" value="rrr" style="shape=partialRectangle;html=1;whiteSpace=wrap;connectable=0;strokeColor=inherit;overflow=hidden;fillColor=none;top=0;left=0;bottom=0;right=0;pointerEvents=1;fontSize=16;sketch=1;hachureGap=4;jiggle=2;curveFitting=1;fontFamily=Architects Daughter;fontSource=https%3A%2F%2Ffonts.googleapis.com%2Fcss%3Ffamily%3DArchitects%2BDaughter;" vertex="1" parent="HeoG5Yq3dVSNQENteENj-68">
          <mxGeometry x="247" width="123" height="43" as="geometry">
            <mxRectangle width="123" height="43" as="alternateBounds" />
          </mxGeometry>
        </mxCell>
        <mxCell id="HeoG5Yq3dVSNQENteENj-72" value="" style="shape=tableRow;horizontal=0;startSize=0;swimlaneHead=0;swimlaneBody=0;strokeColor=inherit;top=0;left=0;bottom=0;right=0;collapsible=0;dropTarget=0;fillColor=none;points=[[0,0.5],[1,0.5]];portConstraint=eastwest;fontSize=16;sketch=1;hachureGap=4;jiggle=2;curveFitting=1;fontFamily=Architects Daughter;fontSource=https%3A%2F%2Ffonts.googleapis.com%2Fcss%3Ffamily%3DArchitects%2BDaughter;" vertex="1" parent="HeoG5Yq3dVSNQENteENj-14">
          <mxGeometry y="206" width="370" height="43" as="geometry" />
        </mxCell>
        <mxCell id="HeoG5Yq3dVSNQENteENj-73" value="5" style="shape=partialRectangle;html=1;whiteSpace=wrap;connectable=0;strokeColor=inherit;overflow=hidden;fillColor=none;top=0;left=0;bottom=0;right=0;pointerEvents=1;fontSize=16;sketch=1;hachureGap=4;jiggle=2;curveFitting=1;fontFamily=Architects Daughter;fontSource=https%3A%2F%2Ffonts.googleapis.com%2Fcss%3Ffamily%3DArchitects%2BDaughter;" vertex="1" parent="HeoG5Yq3dVSNQENteENj-72">
          <mxGeometry width="123" height="43" as="geometry">
            <mxRectangle width="123" height="43" as="alternateBounds" />
          </mxGeometry>
        </mxCell>
        <mxCell id="HeoG5Yq3dVSNQENteENj-74" value="asd" style="shape=partialRectangle;html=1;whiteSpace=wrap;connectable=0;strokeColor=inherit;overflow=hidden;fillColor=none;top=0;left=0;bottom=0;right=0;pointerEvents=1;fontSize=16;sketch=1;hachureGap=4;jiggle=2;curveFitting=1;fontFamily=Architects Daughter;fontSource=https%3A%2F%2Ffonts.googleapis.com%2Fcss%3Ffamily%3DArchitects%2BDaughter;" vertex="1" parent="HeoG5Yq3dVSNQENteENj-72">
          <mxGeometry x="123" width="124" height="43" as="geometry">
            <mxRectangle width="124" height="43" as="alternateBounds" />
          </mxGeometry>
        </mxCell>
        <mxCell id="HeoG5Yq3dVSNQENteENj-75" value="jjj" style="shape=partialRectangle;html=1;whiteSpace=wrap;connectable=0;strokeColor=inherit;overflow=hidden;fillColor=none;top=0;left=0;bottom=0;right=0;pointerEvents=1;fontSize=16;sketch=1;hachureGap=4;jiggle=2;curveFitting=1;fontFamily=Architects Daughter;fontSource=https%3A%2F%2Ffonts.googleapis.com%2Fcss%3Ffamily%3DArchitects%2BDaughter;" vertex="1" parent="HeoG5Yq3dVSNQENteENj-72">
          <mxGeometry x="247" width="123" height="43" as="geometry">
            <mxRectangle width="123" height="43" as="alternateBounds" />
          </mxGeometry>
        </mxCell>
        <mxCell id="HeoG5Yq3dVSNQENteENj-81" value="14" style="shape=ext;double=1;rounded=0;whiteSpace=wrap;html=1;sketch=1;hachureGap=4;jiggle=2;curveFitting=1;fontFamily=Architects Daughter;fontSource=https%3A%2F%2Ffonts.googleapis.com%2Fcss%3Ffamily%3DArchitects%2BDaughter;fontSize=20;" vertex="1" parent="1">
          <mxGeometry x="-130" y="282" width="100" height="40" as="geometry" />
        </mxCell>
        <mxCell id="HeoG5Yq3dVSNQENteENj-87" value="" style="shape=table;startSize=0;container=1;collapsible=0;childLayout=tableLayout;fontSize=16;sketch=1;hachureGap=4;jiggle=2;curveFitting=1;fontFamily=Architects Daughter;fontSource=https%3A%2F%2Ffonts.googleapis.com%2Fcss%3Ffamily%3DArchitects%2BDaughter;" vertex="1" parent="1">
          <mxGeometry x="30" y="82.5" width="320" height="255" as="geometry" />
        </mxCell>
        <mxCell id="HeoG5Yq3dVSNQENteENj-88" value="" style="shape=tableRow;horizontal=0;startSize=0;swimlaneHead=0;swimlaneBody=0;strokeColor=inherit;top=0;left=0;bottom=0;right=0;collapsible=0;dropTarget=0;fillColor=none;points=[[0,0.5],[1,0.5]];portConstraint=eastwest;fontSize=16;sketch=1;hachureGap=4;jiggle=2;curveFitting=1;fontFamily=Architects Daughter;fontSource=https%3A%2F%2Ffonts.googleapis.com%2Fcss%3Ffamily%3DArchitects%2BDaughter;" vertex="1" parent="HeoG5Yq3dVSNQENteENj-87">
          <mxGeometry width="320" height="46" as="geometry" />
        </mxCell>
        <mxCell id="HeoG5Yq3dVSNQENteENj-89" value="patente" style="shape=partialRectangle;html=1;whiteSpace=wrap;connectable=0;strokeColor=inherit;overflow=hidden;fillColor=none;top=0;left=0;bottom=0;right=0;pointerEvents=1;fontSize=16;sketch=1;hachureGap=4;jiggle=2;curveFitting=1;fontFamily=Architects Daughter;fontSource=https%3A%2F%2Ffonts.googleapis.com%2Fcss%3Ffamily%3DArchitects%2BDaughter;" vertex="1" parent="HeoG5Yq3dVSNQENteENj-88">
          <mxGeometry width="104" height="46" as="geometry">
            <mxRectangle width="104" height="46" as="alternateBounds" />
          </mxGeometry>
        </mxCell>
        <mxCell id="HeoG5Yq3dVSNQENteENj-90" value="mot" style="shape=partialRectangle;html=1;whiteSpace=wrap;connectable=0;strokeColor=inherit;overflow=hidden;fillColor=none;top=0;left=0;bottom=0;right=0;pointerEvents=1;fontSize=16;sketch=1;hachureGap=4;jiggle=2;curveFitting=1;fontFamily=Architects Daughter;fontSource=https%3A%2F%2Ffonts.googleapis.com%2Fcss%3Ffamily%3DArchitects%2BDaughter;" vertex="1" parent="HeoG5Yq3dVSNQENteENj-88">
          <mxGeometry x="104" width="110" height="46" as="geometry">
            <mxRectangle width="110" height="46" as="alternateBounds" />
          </mxGeometry>
        </mxCell>
        <mxCell id="HeoG5Yq3dVSNQENteENj-91" value="chasis" style="shape=partialRectangle;html=1;whiteSpace=wrap;connectable=0;strokeColor=inherit;overflow=hidden;fillColor=none;top=0;left=0;bottom=0;right=0;pointerEvents=1;fontSize=16;sketch=1;hachureGap=4;jiggle=2;curveFitting=1;fontFamily=Architects Daughter;fontSource=https%3A%2F%2Ffonts.googleapis.com%2Fcss%3Ffamily%3DArchitects%2BDaughter;" vertex="1" parent="HeoG5Yq3dVSNQENteENj-88">
          <mxGeometry x="214" width="106" height="46" as="geometry">
            <mxRectangle width="106" height="46" as="alternateBounds" />
          </mxGeometry>
        </mxCell>
        <mxCell id="HeoG5Yq3dVSNQENteENj-92" value="" style="shape=tableRow;horizontal=0;startSize=0;swimlaneHead=0;swimlaneBody=0;strokeColor=inherit;top=0;left=0;bottom=0;right=0;collapsible=0;dropTarget=0;fillColor=none;points=[[0,0.5],[1,0.5]];portConstraint=eastwest;fontSize=16;sketch=1;hachureGap=4;jiggle=2;curveFitting=1;fontFamily=Architects Daughter;fontSource=https%3A%2F%2Ffonts.googleapis.com%2Fcss%3Ffamily%3DArchitects%2BDaughter;" vertex="1" parent="HeoG5Yq3dVSNQENteENj-87">
          <mxGeometry y="46" width="320" height="37" as="geometry" />
        </mxCell>
        <mxCell id="HeoG5Yq3dVSNQENteENj-93" value="hjk132" style="shape=partialRectangle;html=1;whiteSpace=wrap;connectable=0;strokeColor=inherit;overflow=hidden;fillColor=none;top=0;left=0;bottom=0;right=0;pointerEvents=1;fontSize=16;sketch=1;hachureGap=4;jiggle=2;curveFitting=1;fontFamily=Architects Daughter;fontSource=https%3A%2F%2Ffonts.googleapis.com%2Fcss%3Ffamily%3DArchitects%2BDaughter;" vertex="1" parent="HeoG5Yq3dVSNQENteENj-92">
          <mxGeometry width="104" height="37" as="geometry">
            <mxRectangle width="104" height="37" as="alternateBounds" />
          </mxGeometry>
        </mxCell>
        <mxCell id="HeoG5Yq3dVSNQENteENj-94" value="(agrege)" style="shape=partialRectangle;html=1;whiteSpace=wrap;connectable=0;strokeColor=inherit;overflow=hidden;fillColor=none;top=0;left=0;bottom=0;right=0;pointerEvents=1;fontSize=16;sketch=1;hachureGap=4;jiggle=2;curveFitting=1;fontFamily=Architects Daughter;fontSource=https%3A%2F%2Ffonts.googleapis.com%2Fcss%3Ffamily%3DArchitects%2BDaughter;" vertex="1" parent="HeoG5Yq3dVSNQENteENj-92">
          <mxGeometry x="104" width="110" height="37" as="geometry">
            <mxRectangle width="110" height="37" as="alternateBounds" />
          </mxGeometry>
        </mxCell>
        <mxCell id="HeoG5Yq3dVSNQENteENj-95" value="147" style="shape=partialRectangle;html=1;whiteSpace=wrap;connectable=0;strokeColor=inherit;overflow=hidden;fillColor=none;top=0;left=0;bottom=0;right=0;pointerEvents=1;fontSize=16;sketch=1;hachureGap=4;jiggle=2;curveFitting=1;fontFamily=Architects Daughter;fontSource=https%3A%2F%2Ffonts.googleapis.com%2Fcss%3Ffamily%3DArchitects%2BDaughter;" vertex="1" parent="HeoG5Yq3dVSNQENteENj-92">
          <mxGeometry x="214" width="106" height="37" as="geometry">
            <mxRectangle width="106" height="37" as="alternateBounds" />
          </mxGeometry>
        </mxCell>
        <mxCell id="HeoG5Yq3dVSNQENteENj-96" value="" style="shape=tableRow;horizontal=0;startSize=0;swimlaneHead=0;swimlaneBody=0;strokeColor=inherit;top=0;left=0;bottom=0;right=0;collapsible=0;dropTarget=0;fillColor=none;points=[[0,0.5],[1,0.5]];portConstraint=eastwest;fontSize=16;sketch=1;hachureGap=4;jiggle=2;curveFitting=1;fontFamily=Architects Daughter;fontSource=https%3A%2F%2Ffonts.googleapis.com%2Fcss%3Ffamily%3DArchitects%2BDaughter;" vertex="1" parent="HeoG5Yq3dVSNQENteENj-87">
          <mxGeometry y="83" width="320" height="43" as="geometry" />
        </mxCell>
        <mxCell id="HeoG5Yq3dVSNQENteENj-97" value="bnm123" style="shape=partialRectangle;html=1;whiteSpace=wrap;connectable=0;strokeColor=inherit;overflow=hidden;fillColor=none;top=0;left=0;bottom=0;right=0;pointerEvents=1;fontSize=16;sketch=1;hachureGap=4;jiggle=2;curveFitting=1;fontFamily=Architects Daughter;fontSource=https%3A%2F%2Ffonts.googleapis.com%2Fcss%3Ffamily%3DArchitects%2BDaughter;" vertex="1" parent="HeoG5Yq3dVSNQENteENj-96">
          <mxGeometry width="104" height="43" as="geometry">
            <mxRectangle width="104" height="43" as="alternateBounds" />
          </mxGeometry>
        </mxCell>
        <mxCell id="HeoG5Yq3dVSNQENteENj-98" value="(agrege)" style="shape=partialRectangle;html=1;whiteSpace=wrap;connectable=0;strokeColor=inherit;overflow=hidden;fillColor=none;top=0;left=0;bottom=0;right=0;pointerEvents=1;fontSize=16;sketch=1;hachureGap=4;jiggle=2;curveFitting=1;fontFamily=Architects Daughter;fontSource=https%3A%2F%2Ffonts.googleapis.com%2Fcss%3Ffamily%3DArchitects%2BDaughter;" vertex="1" parent="HeoG5Yq3dVSNQENteENj-96">
          <mxGeometry x="104" width="110" height="43" as="geometry">
            <mxRectangle width="110" height="43" as="alternateBounds" />
          </mxGeometry>
        </mxCell>
        <mxCell id="HeoG5Yq3dVSNQENteENj-99" value="258" style="shape=partialRectangle;html=1;whiteSpace=wrap;connectable=0;strokeColor=inherit;overflow=hidden;fillColor=none;top=0;left=0;bottom=0;right=0;pointerEvents=1;fontSize=16;sketch=1;hachureGap=4;jiggle=2;curveFitting=1;fontFamily=Architects Daughter;fontSource=https%3A%2F%2Ffonts.googleapis.com%2Fcss%3Ffamily%3DArchitects%2BDaughter;" vertex="1" parent="HeoG5Yq3dVSNQENteENj-96">
          <mxGeometry x="214" width="106" height="43" as="geometry">
            <mxRectangle width="106" height="43" as="alternateBounds" />
          </mxGeometry>
        </mxCell>
        <mxCell id="HeoG5Yq3dVSNQENteENj-100" value="" style="shape=tableRow;horizontal=0;startSize=0;swimlaneHead=0;swimlaneBody=0;strokeColor=inherit;top=0;left=0;bottom=0;right=0;collapsible=0;dropTarget=0;fillColor=none;points=[[0,0.5],[1,0.5]];portConstraint=eastwest;fontSize=16;sketch=1;hachureGap=4;jiggle=2;curveFitting=1;fontFamily=Architects Daughter;fontSource=https%3A%2F%2Ffonts.googleapis.com%2Fcss%3Ffamily%3DArchitects%2BDaughter;" vertex="1" parent="HeoG5Yq3dVSNQENteENj-87">
          <mxGeometry y="126" width="320" height="43" as="geometry" />
        </mxCell>
        <mxCell id="HeoG5Yq3dVSNQENteENj-101" value="ihg951" style="shape=partialRectangle;html=1;whiteSpace=wrap;connectable=0;strokeColor=inherit;overflow=hidden;fillColor=none;top=0;left=0;bottom=0;right=0;pointerEvents=1;fontSize=16;sketch=1;hachureGap=4;jiggle=2;curveFitting=1;fontFamily=Architects Daughter;fontSource=https%3A%2F%2Ffonts.googleapis.com%2Fcss%3Ffamily%3DArchitects%2BDaughter;" vertex="1" parent="HeoG5Yq3dVSNQENteENj-100">
          <mxGeometry width="104" height="43" as="geometry">
            <mxRectangle width="104" height="43" as="alternateBounds" />
          </mxGeometry>
        </mxCell>
        <mxCell id="HeoG5Yq3dVSNQENteENj-102" value="(agrege)" style="shape=partialRectangle;html=1;whiteSpace=wrap;connectable=0;strokeColor=inherit;overflow=hidden;fillColor=none;top=0;left=0;bottom=0;right=0;pointerEvents=1;fontSize=16;sketch=1;hachureGap=4;jiggle=2;curveFitting=1;fontFamily=Architects Daughter;fontSource=https%3A%2F%2Ffonts.googleapis.com%2Fcss%3Ffamily%3DArchitects%2BDaughter;" vertex="1" parent="HeoG5Yq3dVSNQENteENj-100">
          <mxGeometry x="104" width="110" height="43" as="geometry">
            <mxRectangle width="110" height="43" as="alternateBounds" />
          </mxGeometry>
        </mxCell>
        <mxCell id="HeoG5Yq3dVSNQENteENj-103" value="369" style="shape=partialRectangle;html=1;whiteSpace=wrap;connectable=0;strokeColor=inherit;overflow=hidden;fillColor=none;top=0;left=0;bottom=0;right=0;pointerEvents=1;fontSize=16;sketch=1;hachureGap=4;jiggle=2;curveFitting=1;fontFamily=Architects Daughter;fontSource=https%3A%2F%2Ffonts.googleapis.com%2Fcss%3Ffamily%3DArchitects%2BDaughter;" vertex="1" parent="HeoG5Yq3dVSNQENteENj-100">
          <mxGeometry x="214" width="106" height="43" as="geometry">
            <mxRectangle width="106" height="43" as="alternateBounds" />
          </mxGeometry>
        </mxCell>
        <mxCell id="HeoG5Yq3dVSNQENteENj-104" value="" style="shape=tableRow;horizontal=0;startSize=0;swimlaneHead=0;swimlaneBody=0;strokeColor=inherit;top=0;left=0;bottom=0;right=0;collapsible=0;dropTarget=0;fillColor=none;points=[[0,0.5],[1,0.5]];portConstraint=eastwest;fontSize=16;sketch=1;hachureGap=4;jiggle=2;curveFitting=1;fontFamily=Architects Daughter;fontSource=https%3A%2F%2Ffonts.googleapis.com%2Fcss%3Ffamily%3DArchitects%2BDaughter;" vertex="1" parent="HeoG5Yq3dVSNQENteENj-87">
          <mxGeometry y="169" width="320" height="43" as="geometry" />
        </mxCell>
        <mxCell id="HeoG5Yq3dVSNQENteENj-105" value="qsx741" style="shape=partialRectangle;html=1;whiteSpace=wrap;connectable=0;strokeColor=inherit;overflow=hidden;fillColor=none;top=0;left=0;bottom=0;right=0;pointerEvents=1;fontSize=16;sketch=1;hachureGap=4;jiggle=2;curveFitting=1;fontFamily=Architects Daughter;fontSource=https%3A%2F%2Ffonts.googleapis.com%2Fcss%3Ffamily%3DArchitects%2BDaughter;" vertex="1" parent="HeoG5Yq3dVSNQENteENj-104">
          <mxGeometry width="104" height="43" as="geometry">
            <mxRectangle width="104" height="43" as="alternateBounds" />
          </mxGeometry>
        </mxCell>
        <mxCell id="HeoG5Yq3dVSNQENteENj-106" value="(agrege)" style="shape=partialRectangle;html=1;whiteSpace=wrap;connectable=0;strokeColor=inherit;overflow=hidden;fillColor=none;top=0;left=0;bottom=0;right=0;pointerEvents=1;fontSize=16;sketch=1;hachureGap=4;jiggle=2;curveFitting=1;fontFamily=Architects Daughter;fontSource=https%3A%2F%2Ffonts.googleapis.com%2Fcss%3Ffamily%3DArchitects%2BDaughter;" vertex="1" parent="HeoG5Yq3dVSNQENteENj-104">
          <mxGeometry x="104" width="110" height="43" as="geometry">
            <mxRectangle width="110" height="43" as="alternateBounds" />
          </mxGeometry>
        </mxCell>
        <mxCell id="HeoG5Yq3dVSNQENteENj-107" value="1321" style="shape=partialRectangle;html=1;whiteSpace=wrap;connectable=0;strokeColor=inherit;overflow=hidden;fillColor=none;top=0;left=0;bottom=0;right=0;pointerEvents=1;fontSize=16;sketch=1;hachureGap=4;jiggle=2;curveFitting=1;fontFamily=Architects Daughter;fontSource=https%3A%2F%2Ffonts.googleapis.com%2Fcss%3Ffamily%3DArchitects%2BDaughter;" vertex="1" parent="HeoG5Yq3dVSNQENteENj-104">
          <mxGeometry x="214" width="106" height="43" as="geometry">
            <mxRectangle width="106" height="43" as="alternateBounds" />
          </mxGeometry>
        </mxCell>
        <mxCell id="HeoG5Yq3dVSNQENteENj-108" value="" style="shape=tableRow;horizontal=0;startSize=0;swimlaneHead=0;swimlaneBody=0;strokeColor=inherit;top=0;left=0;bottom=0;right=0;collapsible=0;dropTarget=0;fillColor=none;points=[[0,0.5],[1,0.5]];portConstraint=eastwest;fontSize=16;sketch=1;hachureGap=4;jiggle=2;curveFitting=1;fontFamily=Architects Daughter;fontSource=https%3A%2F%2Ffonts.googleapis.com%2Fcss%3Ffamily%3DArchitects%2BDaughter;" vertex="1" parent="HeoG5Yq3dVSNQENteENj-87">
          <mxGeometry y="212" width="320" height="43" as="geometry" />
        </mxCell>
        <mxCell id="HeoG5Yq3dVSNQENteENj-109" value="mnb963" style="shape=partialRectangle;html=1;whiteSpace=wrap;connectable=0;strokeColor=inherit;overflow=hidden;fillColor=none;top=0;left=0;bottom=0;right=0;pointerEvents=1;fontSize=16;sketch=1;hachureGap=4;jiggle=2;curveFitting=1;fontFamily=Architects Daughter;fontSource=https%3A%2F%2Ffonts.googleapis.com%2Fcss%3Ffamily%3DArchitects%2BDaughter;" vertex="1" parent="HeoG5Yq3dVSNQENteENj-108">
          <mxGeometry width="104" height="43" as="geometry">
            <mxRectangle width="104" height="43" as="alternateBounds" />
          </mxGeometry>
        </mxCell>
        <mxCell id="HeoG5Yq3dVSNQENteENj-110" value="(agrege)" style="shape=partialRectangle;html=1;whiteSpace=wrap;connectable=0;strokeColor=inherit;overflow=hidden;fillColor=none;top=0;left=0;bottom=0;right=0;pointerEvents=1;fontSize=16;sketch=1;hachureGap=4;jiggle=2;curveFitting=1;fontFamily=Architects Daughter;fontSource=https%3A%2F%2Ffonts.googleapis.com%2Fcss%3Ffamily%3DArchitects%2BDaughter;" vertex="1" parent="HeoG5Yq3dVSNQENteENj-108">
          <mxGeometry x="104" width="110" height="43" as="geometry">
            <mxRectangle width="110" height="43" as="alternateBounds" />
          </mxGeometry>
        </mxCell>
        <mxCell id="HeoG5Yq3dVSNQENteENj-111" value="654" style="shape=partialRectangle;html=1;whiteSpace=wrap;connectable=0;strokeColor=inherit;overflow=hidden;fillColor=none;top=0;left=0;bottom=0;right=0;pointerEvents=1;fontSize=16;sketch=1;hachureGap=4;jiggle=2;curveFitting=1;fontFamily=Architects Daughter;fontSource=https%3A%2F%2Ffonts.googleapis.com%2Fcss%3Ffamily%3DArchitects%2BDaughter;" vertex="1" parent="HeoG5Yq3dVSNQENteENj-108">
          <mxGeometry x="214" width="106" height="43" as="geometry">
            <mxRectangle width="106" height="43" as="alternateBounds" />
          </mxGeometry>
        </mxCell>
        <mxCell id="HeoG5Yq3dVSNQENteENj-116" value="2" style="shape=ext;double=1;rounded=0;whiteSpace=wrap;html=1;sketch=1;hachureGap=4;jiggle=2;curveFitting=1;fontFamily=Architects Daughter;fontSource=https%3A%2F%2Ffonts.googleapis.com%2Fcss%3Ffamily%3DArchitects%2BDaughter;fontSize=20;" vertex="1" parent="1">
          <mxGeometry x="350" y="162.5" width="100" height="46" as="geometry" />
        </mxCell>
        <mxCell id="HeoG5Yq3dVSNQENteENj-119" value="5" style="shape=ext;double=1;rounded=0;whiteSpace=wrap;html=1;sketch=1;hachureGap=4;jiggle=2;curveFitting=1;fontFamily=Architects Daughter;fontSource=https%3A%2F%2Ffonts.googleapis.com%2Fcss%3Ffamily%3DArchitects%2BDaughter;fontSize=20;" vertex="1" parent="1">
          <mxGeometry x="350" y="288.5" width="100" height="50" as="geometry" />
        </mxCell>
        <mxCell id="HeoG5Yq3dVSNQENteENj-120" value="direccion" style="shape=ext;double=1;rounded=0;whiteSpace=wrap;html=1;sketch=1;hachureGap=4;jiggle=2;curveFitting=1;fontFamily=Architects Daughter;fontSource=https%3A%2F%2Ffonts.googleapis.com%2Fcss%3Ffamily%3DArchitects%2BDaughter;fontSize=20;" vertex="1" parent="1">
          <mxGeometry x="-130" y="70" width="100" height="40" as="geometry" />
        </mxCell>
        <mxCell id="HeoG5Yq3dVSNQENteENj-121" value="10" style="shape=ext;double=1;rounded=0;whiteSpace=wrap;html=1;sketch=1;hachureGap=4;jiggle=2;curveFitting=1;fontFamily=Architects Daughter;fontSource=https%3A%2F%2Ffonts.googleapis.com%2Fcss%3Ffamily%3DArchitects%2BDaughter;fontSize=20;" vertex="1" parent="1">
          <mxGeometry x="-130" y="110" width="100" height="40" as="geometry" />
        </mxCell>
        <mxCell id="HeoG5Yq3dVSNQENteENj-122" value="11" style="shape=ext;double=1;rounded=0;whiteSpace=wrap;html=1;sketch=1;hachureGap=4;jiggle=2;curveFitting=1;fontFamily=Architects Daughter;fontSource=https%3A%2F%2Ffonts.googleapis.com%2Fcss%3Ffamily%3DArchitects%2BDaughter;fontSize=20;" vertex="1" parent="1">
          <mxGeometry x="-130" y="150" width="100" height="40" as="geometry" />
        </mxCell>
        <mxCell id="HeoG5Yq3dVSNQENteENj-123" value="12" style="shape=ext;double=1;rounded=0;whiteSpace=wrap;html=1;sketch=1;hachureGap=4;jiggle=2;curveFitting=1;fontFamily=Architects Daughter;fontSource=https%3A%2F%2Ffonts.googleapis.com%2Fcss%3Ffamily%3DArchitects%2BDaughter;fontSize=20;" vertex="1" parent="1">
          <mxGeometry x="-130" y="190" width="100" height="40" as="geometry" />
        </mxCell>
        <mxCell id="HeoG5Yq3dVSNQENteENj-124" value="13" style="shape=ext;double=1;rounded=0;whiteSpace=wrap;html=1;sketch=1;hachureGap=4;jiggle=2;curveFitting=1;fontFamily=Architects Daughter;fontSource=https%3A%2F%2Ffonts.googleapis.com%2Fcss%3Ffamily%3DArchitects%2BDaughter;fontSize=20;" vertex="1" parent="1">
          <mxGeometry x="-130" y="230" width="100" height="50" as="geometry" />
        </mxCell>
        <mxCell id="HeoG5Yq3dVSNQENteENj-125" value="fk(id)" style="shape=ext;double=1;rounded=0;whiteSpace=wrap;html=1;sketch=1;hachureGap=4;jiggle=2;curveFitting=1;fontFamily=Architects Daughter;fontSource=https%3A%2F%2Ffonts.googleapis.com%2Fcss%3Ffamily%3DArchitects%2BDaughter;fontSize=20;" vertex="1" parent="1">
          <mxGeometry x="350" y="82.5" width="100" height="40" as="geometry" />
        </mxCell>
        <mxCell id="HeoG5Yq3dVSNQENteENj-126" value="1" style="shape=ext;double=1;rounded=0;whiteSpace=wrap;html=1;sketch=1;hachureGap=4;jiggle=2;curveFitting=1;fontFamily=Architects Daughter;fontSource=https%3A%2F%2Ffonts.googleapis.com%2Fcss%3Ffamily%3DArchitects%2BDaughter;fontSize=20;" vertex="1" parent="1">
          <mxGeometry x="350" y="122.5" width="100" height="46" as="geometry" />
        </mxCell>
        <mxCell id="HeoG5Yq3dVSNQENteENj-127" value="3" style="shape=ext;double=1;rounded=0;whiteSpace=wrap;html=1;sketch=1;hachureGap=4;jiggle=2;curveFitting=1;fontFamily=Architects Daughter;fontSource=https%3A%2F%2Ffonts.googleapis.com%2Fcss%3Ffamily%3DArchitects%2BDaughter;fontSize=20;" vertex="1" parent="1">
          <mxGeometry x="350" y="208.5" width="100" height="46" as="geometry" />
        </mxCell>
        <mxCell id="HeoG5Yq3dVSNQENteENj-128" value="4" style="shape=ext;double=1;rounded=0;whiteSpace=wrap;html=1;sketch=1;hachureGap=4;jiggle=2;curveFitting=1;fontFamily=Architects Daughter;fontSource=https%3A%2F%2Ffonts.googleapis.com%2Fcss%3Ffamily%3DArchitects%2BDaughter;fontSize=20;" vertex="1" parent="1">
          <mxGeometry x="350" y="254.5" width="100" height="46" as="geometry" />
        </mxCell>
        <mxCell id="HeoG5Yq3dVSNQENteENj-133" value="" style="shape=table;startSize=0;container=1;collapsible=0;childLayout=tableLayout;fontSize=16;sketch=1;hachureGap=4;jiggle=2;curveFitting=1;fontFamily=Architects Daughter;fontSource=https%3A%2F%2Ffonts.googleapis.com%2Fcss%3Ffamily%3DArchitects%2BDaughter;" vertex="1" parent="1">
          <mxGeometry x="-430" y="440" width="410" height="255" as="geometry" />
        </mxCell>
        <mxCell id="HeoG5Yq3dVSNQENteENj-134" value="" style="shape=tableRow;horizontal=0;startSize=0;swimlaneHead=0;swimlaneBody=0;strokeColor=inherit;top=0;left=0;bottom=0;right=0;collapsible=0;dropTarget=0;fillColor=none;points=[[0,0.5],[1,0.5]];portConstraint=eastwest;fontSize=16;sketch=1;hachureGap=4;jiggle=2;curveFitting=1;fontFamily=Architects Daughter;fontSource=https%3A%2F%2Ffonts.googleapis.com%2Fcss%3Ffamily%3DArchitects%2BDaughter;" vertex="1" parent="HeoG5Yq3dVSNQENteENj-133">
          <mxGeometry width="410" height="46" as="geometry" />
        </mxCell>
        <mxCell id="HeoG5Yq3dVSNQENteENj-135" value="patente" style="shape=partialRectangle;html=1;whiteSpace=wrap;connectable=0;strokeColor=inherit;overflow=hidden;fillColor=none;top=0;left=0;bottom=0;right=0;pointerEvents=1;fontSize=16;sketch=1;hachureGap=4;jiggle=2;curveFitting=1;fontFamily=Architects Daughter;fontSource=https%3A%2F%2Ffonts.googleapis.com%2Fcss%3Ffamily%3DArchitects%2BDaughter;" vertex="1" parent="HeoG5Yq3dVSNQENteENj-134">
          <mxGeometry width="133" height="46" as="geometry">
            <mxRectangle width="133" height="46" as="alternateBounds" />
          </mxGeometry>
        </mxCell>
        <mxCell id="HeoG5Yq3dVSNQENteENj-136" value="averias" style="shape=partialRectangle;html=1;whiteSpace=wrap;connectable=0;strokeColor=inherit;overflow=hidden;fillColor=none;top=0;left=0;bottom=0;right=0;pointerEvents=1;fontSize=16;sketch=1;hachureGap=4;jiggle=2;curveFitting=1;fontFamily=Architects Daughter;fontSource=https%3A%2F%2Ffonts.googleapis.com%2Fcss%3Ffamily%3DArchitects%2BDaughter;" vertex="1" parent="HeoG5Yq3dVSNQENteENj-134">
          <mxGeometry x="133" width="149" height="46" as="geometry">
            <mxRectangle width="149" height="46" as="alternateBounds" />
          </mxGeometry>
        </mxCell>
        <mxCell id="HeoG5Yq3dVSNQENteENj-137" value="chasis" style="shape=partialRectangle;html=1;whiteSpace=wrap;connectable=0;strokeColor=inherit;overflow=hidden;fillColor=none;top=0;left=0;bottom=0;right=0;pointerEvents=1;fontSize=16;sketch=1;hachureGap=4;jiggle=2;curveFitting=1;fontFamily=Architects Daughter;fontSource=https%3A%2F%2Ffonts.googleapis.com%2Fcss%3Ffamily%3DArchitects%2BDaughter;" vertex="1" parent="HeoG5Yq3dVSNQENteENj-134">
          <mxGeometry x="282" width="128" height="46" as="geometry">
            <mxRectangle width="128" height="46" as="alternateBounds" />
          </mxGeometry>
        </mxCell>
        <mxCell id="HeoG5Yq3dVSNQENteENj-138" value="" style="shape=tableRow;horizontal=0;startSize=0;swimlaneHead=0;swimlaneBody=0;strokeColor=inherit;top=0;left=0;bottom=0;right=0;collapsible=0;dropTarget=0;fillColor=none;points=[[0,0.5],[1,0.5]];portConstraint=eastwest;fontSize=16;sketch=1;hachureGap=4;jiggle=2;curveFitting=1;fontFamily=Architects Daughter;fontSource=https%3A%2F%2Ffonts.googleapis.com%2Fcss%3Ffamily%3DArchitects%2BDaughter;" vertex="1" parent="HeoG5Yq3dVSNQENteENj-133">
          <mxGeometry y="46" width="410" height="37" as="geometry" />
        </mxCell>
        <mxCell id="HeoG5Yq3dVSNQENteENj-139" value="hjk132" style="shape=partialRectangle;html=1;whiteSpace=wrap;connectable=0;strokeColor=inherit;overflow=hidden;fillColor=none;top=0;left=0;bottom=0;right=0;pointerEvents=1;fontSize=16;sketch=1;hachureGap=4;jiggle=2;curveFitting=1;fontFamily=Architects Daughter;fontSource=https%3A%2F%2Ffonts.googleapis.com%2Fcss%3Ffamily%3DArchitects%2BDaughter;" vertex="1" parent="HeoG5Yq3dVSNQENteENj-138">
          <mxGeometry width="133" height="37" as="geometry">
            <mxRectangle width="133" height="37" as="alternateBounds" />
          </mxGeometry>
        </mxCell>
        <mxCell id="HeoG5Yq3dVSNQENteENj-140" value="(agrege)" style="shape=partialRectangle;html=1;whiteSpace=wrap;connectable=0;strokeColor=inherit;overflow=hidden;fillColor=none;top=0;left=0;bottom=0;right=0;pointerEvents=1;fontSize=16;sketch=1;hachureGap=4;jiggle=2;curveFitting=1;fontFamily=Architects Daughter;fontSource=https%3A%2F%2Ffonts.googleapis.com%2Fcss%3Ffamily%3DArchitects%2BDaughter;" vertex="1" parent="HeoG5Yq3dVSNQENteENj-138">
          <mxGeometry x="133" width="149" height="37" as="geometry">
            <mxRectangle width="149" height="37" as="alternateBounds" />
          </mxGeometry>
        </mxCell>
        <mxCell id="HeoG5Yq3dVSNQENteENj-141" value="147" style="shape=partialRectangle;html=1;whiteSpace=wrap;connectable=0;strokeColor=inherit;overflow=hidden;fillColor=none;top=0;left=0;bottom=0;right=0;pointerEvents=1;fontSize=16;sketch=1;hachureGap=4;jiggle=2;curveFitting=1;fontFamily=Architects Daughter;fontSource=https%3A%2F%2Ffonts.googleapis.com%2Fcss%3Ffamily%3DArchitects%2BDaughter;" vertex="1" parent="HeoG5Yq3dVSNQENteENj-138">
          <mxGeometry x="282" width="128" height="37" as="geometry">
            <mxRectangle width="128" height="37" as="alternateBounds" />
          </mxGeometry>
        </mxCell>
        <mxCell id="HeoG5Yq3dVSNQENteENj-142" value="" style="shape=tableRow;horizontal=0;startSize=0;swimlaneHead=0;swimlaneBody=0;strokeColor=inherit;top=0;left=0;bottom=0;right=0;collapsible=0;dropTarget=0;fillColor=none;points=[[0,0.5],[1,0.5]];portConstraint=eastwest;fontSize=16;sketch=1;hachureGap=4;jiggle=2;curveFitting=1;fontFamily=Architects Daughter;fontSource=https%3A%2F%2Ffonts.googleapis.com%2Fcss%3Ffamily%3DArchitects%2BDaughter;" vertex="1" parent="HeoG5Yq3dVSNQENteENj-133">
          <mxGeometry y="83" width="410" height="43" as="geometry" />
        </mxCell>
        <mxCell id="HeoG5Yq3dVSNQENteENj-143" value="bnm123" style="shape=partialRectangle;html=1;whiteSpace=wrap;connectable=0;strokeColor=inherit;overflow=hidden;fillColor=none;top=0;left=0;bottom=0;right=0;pointerEvents=1;fontSize=16;sketch=1;hachureGap=4;jiggle=2;curveFitting=1;fontFamily=Architects Daughter;fontSource=https%3A%2F%2Ffonts.googleapis.com%2Fcss%3Ffamily%3DArchitects%2BDaughter;" vertex="1" parent="HeoG5Yq3dVSNQENteENj-142">
          <mxGeometry width="133" height="43" as="geometry">
            <mxRectangle width="133" height="43" as="alternateBounds" />
          </mxGeometry>
        </mxCell>
        <mxCell id="HeoG5Yq3dVSNQENteENj-144" value="(agrege)" style="shape=partialRectangle;html=1;whiteSpace=wrap;connectable=0;strokeColor=inherit;overflow=hidden;fillColor=none;top=0;left=0;bottom=0;right=0;pointerEvents=1;fontSize=16;sketch=1;hachureGap=4;jiggle=2;curveFitting=1;fontFamily=Architects Daughter;fontSource=https%3A%2F%2Ffonts.googleapis.com%2Fcss%3Ffamily%3DArchitects%2BDaughter;" vertex="1" parent="HeoG5Yq3dVSNQENteENj-142">
          <mxGeometry x="133" width="149" height="43" as="geometry">
            <mxRectangle width="149" height="43" as="alternateBounds" />
          </mxGeometry>
        </mxCell>
        <mxCell id="HeoG5Yq3dVSNQENteENj-145" value="258" style="shape=partialRectangle;html=1;whiteSpace=wrap;connectable=0;strokeColor=inherit;overflow=hidden;fillColor=none;top=0;left=0;bottom=0;right=0;pointerEvents=1;fontSize=16;sketch=1;hachureGap=4;jiggle=2;curveFitting=1;fontFamily=Architects Daughter;fontSource=https%3A%2F%2Ffonts.googleapis.com%2Fcss%3Ffamily%3DArchitects%2BDaughter;" vertex="1" parent="HeoG5Yq3dVSNQENteENj-142">
          <mxGeometry x="282" width="128" height="43" as="geometry">
            <mxRectangle width="128" height="43" as="alternateBounds" />
          </mxGeometry>
        </mxCell>
        <mxCell id="HeoG5Yq3dVSNQENteENj-146" value="" style="shape=tableRow;horizontal=0;startSize=0;swimlaneHead=0;swimlaneBody=0;strokeColor=inherit;top=0;left=0;bottom=0;right=0;collapsible=0;dropTarget=0;fillColor=none;points=[[0,0.5],[1,0.5]];portConstraint=eastwest;fontSize=16;sketch=1;hachureGap=4;jiggle=2;curveFitting=1;fontFamily=Architects Daughter;fontSource=https%3A%2F%2Ffonts.googleapis.com%2Fcss%3Ffamily%3DArchitects%2BDaughter;" vertex="1" parent="HeoG5Yq3dVSNQENteENj-133">
          <mxGeometry y="126" width="410" height="43" as="geometry" />
        </mxCell>
        <mxCell id="HeoG5Yq3dVSNQENteENj-147" value="ihg951" style="shape=partialRectangle;html=1;whiteSpace=wrap;connectable=0;strokeColor=inherit;overflow=hidden;fillColor=none;top=0;left=0;bottom=0;right=0;pointerEvents=1;fontSize=16;sketch=1;hachureGap=4;jiggle=2;curveFitting=1;fontFamily=Architects Daughter;fontSource=https%3A%2F%2Ffonts.googleapis.com%2Fcss%3Ffamily%3DArchitects%2BDaughter;" vertex="1" parent="HeoG5Yq3dVSNQENteENj-146">
          <mxGeometry width="133" height="43" as="geometry">
            <mxRectangle width="133" height="43" as="alternateBounds" />
          </mxGeometry>
        </mxCell>
        <mxCell id="HeoG5Yq3dVSNQENteENj-148" value="(agrege)" style="shape=partialRectangle;html=1;whiteSpace=wrap;connectable=0;strokeColor=inherit;overflow=hidden;fillColor=none;top=0;left=0;bottom=0;right=0;pointerEvents=1;fontSize=16;sketch=1;hachureGap=4;jiggle=2;curveFitting=1;fontFamily=Architects Daughter;fontSource=https%3A%2F%2Ffonts.googleapis.com%2Fcss%3Ffamily%3DArchitects%2BDaughter;" vertex="1" parent="HeoG5Yq3dVSNQENteENj-146">
          <mxGeometry x="133" width="149" height="43" as="geometry">
            <mxRectangle width="149" height="43" as="alternateBounds" />
          </mxGeometry>
        </mxCell>
        <mxCell id="HeoG5Yq3dVSNQENteENj-149" value="369" style="shape=partialRectangle;html=1;whiteSpace=wrap;connectable=0;strokeColor=inherit;overflow=hidden;fillColor=none;top=0;left=0;bottom=0;right=0;pointerEvents=1;fontSize=16;sketch=1;hachureGap=4;jiggle=2;curveFitting=1;fontFamily=Architects Daughter;fontSource=https%3A%2F%2Ffonts.googleapis.com%2Fcss%3Ffamily%3DArchitects%2BDaughter;" vertex="1" parent="HeoG5Yq3dVSNQENteENj-146">
          <mxGeometry x="282" width="128" height="43" as="geometry">
            <mxRectangle width="128" height="43" as="alternateBounds" />
          </mxGeometry>
        </mxCell>
        <mxCell id="HeoG5Yq3dVSNQENteENj-150" value="" style="shape=tableRow;horizontal=0;startSize=0;swimlaneHead=0;swimlaneBody=0;strokeColor=inherit;top=0;left=0;bottom=0;right=0;collapsible=0;dropTarget=0;fillColor=none;points=[[0,0.5],[1,0.5]];portConstraint=eastwest;fontSize=16;sketch=1;hachureGap=4;jiggle=2;curveFitting=1;fontFamily=Architects Daughter;fontSource=https%3A%2F%2Ffonts.googleapis.com%2Fcss%3Ffamily%3DArchitects%2BDaughter;" vertex="1" parent="HeoG5Yq3dVSNQENteENj-133">
          <mxGeometry y="169" width="410" height="43" as="geometry" />
        </mxCell>
        <mxCell id="HeoG5Yq3dVSNQENteENj-151" value="qsx741" style="shape=partialRectangle;html=1;whiteSpace=wrap;connectable=0;strokeColor=inherit;overflow=hidden;fillColor=none;top=0;left=0;bottom=0;right=0;pointerEvents=1;fontSize=16;sketch=1;hachureGap=4;jiggle=2;curveFitting=1;fontFamily=Architects Daughter;fontSource=https%3A%2F%2Ffonts.googleapis.com%2Fcss%3Ffamily%3DArchitects%2BDaughter;" vertex="1" parent="HeoG5Yq3dVSNQENteENj-150">
          <mxGeometry width="133" height="43" as="geometry">
            <mxRectangle width="133" height="43" as="alternateBounds" />
          </mxGeometry>
        </mxCell>
        <mxCell id="HeoG5Yq3dVSNQENteENj-152" value="(agrege)" style="shape=partialRectangle;html=1;whiteSpace=wrap;connectable=0;strokeColor=inherit;overflow=hidden;fillColor=none;top=0;left=0;bottom=0;right=0;pointerEvents=1;fontSize=16;sketch=1;hachureGap=4;jiggle=2;curveFitting=1;fontFamily=Architects Daughter;fontSource=https%3A%2F%2Ffonts.googleapis.com%2Fcss%3Ffamily%3DArchitects%2BDaughter;" vertex="1" parent="HeoG5Yq3dVSNQENteENj-150">
          <mxGeometry x="133" width="149" height="43" as="geometry">
            <mxRectangle width="149" height="43" as="alternateBounds" />
          </mxGeometry>
        </mxCell>
        <mxCell id="HeoG5Yq3dVSNQENteENj-153" value="1321" style="shape=partialRectangle;html=1;whiteSpace=wrap;connectable=0;strokeColor=inherit;overflow=hidden;fillColor=none;top=0;left=0;bottom=0;right=0;pointerEvents=1;fontSize=16;sketch=1;hachureGap=4;jiggle=2;curveFitting=1;fontFamily=Architects Daughter;fontSource=https%3A%2F%2Ffonts.googleapis.com%2Fcss%3Ffamily%3DArchitects%2BDaughter;" vertex="1" parent="HeoG5Yq3dVSNQENteENj-150">
          <mxGeometry x="282" width="128" height="43" as="geometry">
            <mxRectangle width="128" height="43" as="alternateBounds" />
          </mxGeometry>
        </mxCell>
        <mxCell id="HeoG5Yq3dVSNQENteENj-154" value="" style="shape=tableRow;horizontal=0;startSize=0;swimlaneHead=0;swimlaneBody=0;strokeColor=inherit;top=0;left=0;bottom=0;right=0;collapsible=0;dropTarget=0;fillColor=none;points=[[0,0.5],[1,0.5]];portConstraint=eastwest;fontSize=16;sketch=1;hachureGap=4;jiggle=2;curveFitting=1;fontFamily=Architects Daughter;fontSource=https%3A%2F%2Ffonts.googleapis.com%2Fcss%3Ffamily%3DArchitects%2BDaughter;" vertex="1" parent="HeoG5Yq3dVSNQENteENj-133">
          <mxGeometry y="212" width="410" height="43" as="geometry" />
        </mxCell>
        <mxCell id="HeoG5Yq3dVSNQENteENj-155" value="mnb963" style="shape=partialRectangle;html=1;whiteSpace=wrap;connectable=0;strokeColor=inherit;overflow=hidden;fillColor=none;top=0;left=0;bottom=0;right=0;pointerEvents=1;fontSize=16;sketch=1;hachureGap=4;jiggle=2;curveFitting=1;fontFamily=Architects Daughter;fontSource=https%3A%2F%2Ffonts.googleapis.com%2Fcss%3Ffamily%3DArchitects%2BDaughter;" vertex="1" parent="HeoG5Yq3dVSNQENteENj-154">
          <mxGeometry width="133" height="43" as="geometry">
            <mxRectangle width="133" height="43" as="alternateBounds" />
          </mxGeometry>
        </mxCell>
        <mxCell id="HeoG5Yq3dVSNQENteENj-156" value="(agrege)" style="shape=partialRectangle;html=1;whiteSpace=wrap;connectable=0;strokeColor=inherit;overflow=hidden;fillColor=none;top=0;left=0;bottom=0;right=0;pointerEvents=1;fontSize=16;sketch=1;hachureGap=4;jiggle=2;curveFitting=1;fontFamily=Architects Daughter;fontSource=https%3A%2F%2Ffonts.googleapis.com%2Fcss%3Ffamily%3DArchitects%2BDaughter;" vertex="1" parent="HeoG5Yq3dVSNQENteENj-154">
          <mxGeometry x="133" width="149" height="43" as="geometry">
            <mxRectangle width="149" height="43" as="alternateBounds" />
          </mxGeometry>
        </mxCell>
        <mxCell id="HeoG5Yq3dVSNQENteENj-157" value="654" style="shape=partialRectangle;html=1;whiteSpace=wrap;connectable=0;strokeColor=inherit;overflow=hidden;fillColor=none;top=0;left=0;bottom=0;right=0;pointerEvents=1;fontSize=16;sketch=1;hachureGap=4;jiggle=2;curveFitting=1;fontFamily=Architects Daughter;fontSource=https%3A%2F%2Ffonts.googleapis.com%2Fcss%3Ffamily%3DArchitects%2BDaughter;" vertex="1" parent="HeoG5Yq3dVSNQENteENj-154">
          <mxGeometry x="282" width="128" height="43" as="geometry">
            <mxRectangle width="128" height="43" as="alternateBounds" />
          </mxGeometry>
        </mxCell>
        <mxCell id="HeoG5Yq3dVSNQENteENj-158" value="cliente" style="shape=ext;double=1;rounded=0;whiteSpace=wrap;html=1;sketch=1;hachureGap=4;jiggle=2;curveFitting=1;fontFamily=Architects Daughter;fontSource=https%3A%2F%2Ffonts.googleapis.com%2Fcss%3Ffamily%3DArchitects%2BDaughter;fontSize=20;" vertex="1" parent="1">
          <mxGeometry x="-500" y="30" width="470" height="40" as="geometry" />
        </mxCell>
        <mxCell id="HeoG5Yq3dVSNQENteENj-159" value="auto" style="shape=ext;double=1;rounded=0;whiteSpace=wrap;html=1;sketch=1;hachureGap=4;jiggle=2;curveFitting=1;fontFamily=Architects Daughter;fontSource=https%3A%2F%2Ffonts.googleapis.com%2Fcss%3Ffamily%3DArchitects%2BDaughter;fontSize=20;" vertex="1" parent="1">
          <mxGeometry x="30" y="40" width="420" height="40" as="geometry" />
        </mxCell>
        <mxCell id="HeoG5Yq3dVSNQENteENj-160" value="reparacion" style="shape=ext;double=1;rounded=0;whiteSpace=wrap;html=1;sketch=1;hachureGap=4;jiggle=2;curveFitting=1;fontFamily=Architects Daughter;fontSource=https%3A%2F%2Ffonts.googleapis.com%2Fcss%3Ffamily%3DArchitects%2BDaughter;fontSize=20;" vertex="1" parent="1">
          <mxGeometry x="-430" y="400" width="410" height="40" as="geometry" />
        </mxCell>
      </root>
    </mxGraphModel>
  </diagram>
</mxfile>
